<?xml version="1.0" encoding="UTF-8"?>
<!DOCTYPE svg PUBLIC "-//W3C//DTD SVG 1.1//EN" "http://www.w3.org/Graphics/SVG/1.1/DTD/svg11.dtd">
<!-- Creator: CorelDRAW 2017 -->
<svg xmlns="http://www.w3.org/2000/svg" xml:space="preserve" width="538px" height="166px" version="1.1" style="shape-rendering:geometricPrecision; text-rendering:geometricPrecision; image-rendering:optimizeQuality; fill-rule:evenodd; clip-rule:evenodd"
viewBox="0 0 17976.65 5552.15"
 xmlns:xlink="http://www.w3.org/1999/xlink">
 <defs>
  <style type="text/css">
   <![CDATA[
    .fil0 {fill:#F69F1C}
    .fil1 {fill:#FECB00}
    .fil2 {fill:black;fill-rule:nonzero}
   ]]>
  </style>
 </defs>
 <g id="Слой_x0020_1">
  <metadata id="CorelCorpID_0Corel-Layer"/>
  <g id="_2314173785248">
   <g>
    <path class="fil0" d="M14694.2 4240.75l3193.06 0c164.52,0 70.24,134.6 -209.54,299.12l-1721.32 1012.28 0 -1229.91 -1605.47 0c139.42,-50.46 264.26,-81.49 343.27,-81.49z"/>
    <path class="fil1" d="M1802.81 0l15937.81 0c137.24,49.39 236.03,180.99 236.03,334.46l0 3990.47 -17683.76 0c-114.27,0 -216.37,-54.45 -281.64,-138.67 -17.33,-56.22 -15.16,-123.58 10.62,-195.8l1298.1 -3635.11c69.8,-195.44 287.08,-355.35 482.84,-355.35z"/>
   </g>
   <path class="fil2" d="M2810.35 2663.63c-65.98,0 -126.47,-10.39 -181.47,-31.16 -54.96,-20.77 -102.22,-50.5 -141.71,-89.19 -39.52,-38.69 -70.08,-85.72 -91.64,-141.11 -21.59,-55.4 -32.37,-118.1 -32.37,-188.14 0,-70.05 10.58,-132.98 31.74,-188.77 21.2,-55.79 51.13,-103.05 89.83,-141.75 38.69,-38.69 84.89,-68.22 138.66,-88.56 53.78,-20.37 113.63,-30.56 179.61,-30.56 59.46,0 109.96,5.89 151.5,17.93 41.54,11.8 74.11,24.64 97.76,38.69l-21.99 133.97c-28.51,-17.1 -61.12,-31.15 -97.76,-42.13 -36.64,-11.02 -77.79,-16.5 -123.39,-16.5 -89.63,0 -159.24,26.69 -208.94,79.83 -49.67,53.34 -74.55,132.74 -74.55,238.44 0,106.53 25.47,185.93 76.36,238.48 50.94,52.32 123.23,78.57 216.88,78.57 39.09,0 74.55,-5.09 106.29,-15.24 31.79,-10.19 61.91,-24.24 90.42,-42.17l40.35 122.16c-22.82,16.31 -54.8,31.59 -95.94,45.84 -41.11,14.26 -91.01,21.37 -149.64,21.37z"/>
   <path id="1" class="fil2" d="M3597.17 1908.55l0 226.04 117.3 0c48.06,0 86.95,-9.75 116.68,-29.1 29.73,-19.55 44.57,-51.13 44.57,-94.92 0,-39.68 -13.42,-66.57 -40.31,-80.82 -26.89,-14.06 -63.92,-21.2 -111.18,-21.2l-127.06 0zm0 357.99l0 252.93 136.85 0c53.74,0 97.32,-9.16 130.73,-27.48 33.4,-18.32 50.1,-51.92 50.1,-100.8 0,-46.43 -15.71,-78.81 -47.06,-97.13 -31.35,-18.36 -80.03,-27.52 -146.01,-27.52l-124.61 0zm-152.72 -489.95l261.46 0c105.89,0 186.52,16.11 241.91,48.29 55.4,32.18 83.07,86.94 83.07,164.33 0,30.96 -4.46,58.04 -13.42,81.26 -8.96,23.21 -21.4,43.15 -37.27,59.85 -15.88,16.71 -35.42,30.33 -58.64,40.95 -23.21,10.58 -48.68,18.71 -76.36,24.44 75.73,8.13 132.98,27.68 171.64,58.63 38.69,30.96 58.04,79.01 58.04,144.15 0,45.65 -8.96,84.54 -26.85,116.72 -17.93,32.18 -43,58.24 -75.18,78.17 -32.14,19.98 -70.24,34.63 -114.22,43.99 -43.99,9.36 -91.64,14.05 -142.93,14.05l-271.25 0 0 -874.83z"/>
   <path id="2" class="fil2" d="M5096.31 1776.59l0 874.83 -156.35 0 0 -874.83 156.35 0zm-715.95 448.41l0 294.47 114.86 0c57.01,0 101.98,-11.01 134.99,-32.77 32.97,-21.99 49.47,-60.92 49.47,-116.91 0,-96.5 -59.46,-144.79 -178.38,-144.79l-120.94 0zm-155.17 -448.41l155.17 0 0 316.46 123.39 0c107.51,0 190.19,21.6 248.03,64.75 57.84,43.2 86.75,111.19 86.75,204.05 0,51.33 -8.14,95.32 -24.44,131.96 -16.27,36.64 -39.49,66.61 -69.65,89.82 -30.13,23.22 -66.37,40.31 -108.74,51.29 -42.37,11.02 -89.19,16.5 -140.48,16.5l-270.03 0 0 -874.83z"/>
   <path id="3" class="fil2" d="M5440.88 2249.44l0 270.03 133.18 0c52.95,0 94.88,-9.99 125.83,-29.73 30.96,-19.94 46.44,-55.79 46.44,-107.71 0,-88.4 -55.4,-132.59 -166.19,-132.59l-139.26 0zm-155.17 -472.85l558.38 0 0 131.96 -403.21 0 0 208.94 141.71 0c103.45,0 183.08,20.77 238.87,62.31 55.79,41.53 83.71,106.29 83.71,194.25 0,48.88 -7.94,90.86 -23.85,125.88 -15.87,35.02 -38.26,63.72 -67.2,86.11 -28.9,22.43 -63.73,38.93 -104.43,49.51 -40.75,10.58 -85.96,15.87 -135.63,15.87l-288.35 0 0 -874.83z"/>
   <path id="4" class="fil2" d="M6431.8 2663.63c-59.47,0 -115.06,-9.76 -166.78,-29.3 -51.72,-19.55 -96.74,-48.29 -135.03,-86.15 -38.26,-37.87 -68.43,-84.7 -90.42,-140.53 -21.99,-55.79 -32.97,-120.34 -32.97,-193.62 0,-73.32 10.98,-137.88 32.97,-193.67 21.99,-55.79 52.16,-102.61 90.42,-140.52 38.29,-37.86 83.31,-66.57 135.03,-86.11 51.72,-19.59 107.31,-29.34 166.78,-29.34 60.25,0 116.28,9.56 168,28.71 51.72,19.15 96.69,47.26 134.99,84.29 38.3,37.08 68.43,83.51 90.42,139.3 21.99,55.79 32.97,120.35 32.97,193.67 0,73.32 -10.98,138.07 -32.97,194.25 -21.99,56.23 -52.12,103.45 -90.42,141.75 -38.3,38.26 -83.27,67.4 -134.99,87.34 -51.72,19.98 -107.75,29.93 -168,29.93zm0 -131.96c37.47,0 72.49,-5.68 105.06,-17.09 32.58,-11.42 60.49,-29.74 83.71,-54.77 23.21,-25.27 41.53,-58.04 54.96,-98.15 13.46,-40.32 20.17,-89.39 20.17,-147.04 0,-57.61 -6.71,-106.92 -20.17,-147.63 -13.43,-40.51 -31.75,-73.52 -54.96,-98.75 -23.22,-25.07 -51.13,-43.39 -83.71,-54.8 -32.57,-11.41 -67.59,-17.09 -105.06,-17.09 -37.47,0 -72.1,5.68 -103.88,17.09 -31.75,11.41 -59.47,29.73 -83.08,54.8 -23.61,25.23 -42.17,58.24 -55.59,98.75 -13.42,40.71 -20.18,90.02 -20.18,147.63 0,57.65 6.76,106.72 20.18,147.04 13.42,40.11 31.98,72.88 55.59,98.15 23.61,25.03 51.33,43.35 83.08,54.77 31.78,11.41 66.41,17.09 103.88,17.09z"/>
   <path id="5" class="fil2" d="M7158.76 1908.55l0 293.24 102.62 0c58.63,0 104.87,-11.61 138.67,-34.63 33.83,-23.18 50.73,-62.7 50.73,-118.69 0,-48.68 -15.91,-84.09 -47.65,-106.52 -31.79,-22.19 -77.39,-33.4 -136.85,-33.4l-107.52 0zm0 425.19l0 317.68 -155.17 0 0 -874.83 262.69 0c107.51,0 191.02,21.2 250.48,63.57 59.46,42.33 89.19,109.96 89.19,202.79 0,51.33 -8.37,95.31 -25.07,131.95 -16.7,36.68 -40.11,66.81 -70.24,90.42 -30.13,23.65 -66.37,40.94 -108.74,51.96 -42.36,10.97 -89.19,16.46 -140.52,16.46l-102.62 0z"/>
   <path id="6" class="fil2" d="M8124.01 2663.63c-59.46,0 -115.05,-9.76 -166.77,-29.3 -51.73,-19.55 -96.74,-48.29 -135.04,-86.15 -38.26,-37.87 -68.42,-84.7 -90.41,-140.53 -22,-55.79 -32.97,-120.34 -32.97,-193.62 0,-73.32 10.97,-137.88 32.97,-193.67 21.99,-55.79 52.15,-102.61 90.41,-140.52 38.3,-37.86 83.31,-66.57 135.04,-86.11 51.72,-19.59 107.31,-29.34 166.77,-29.34 60.25,0 116.28,9.56 168,28.71 51.73,19.15 96.7,47.26 135,84.29 38.3,37.08 68.42,83.51 90.42,139.3 21.99,55.79 32.96,120.35 32.96,193.67 0,73.32 -10.97,138.07 -32.96,194.25 -22,56.23 -52.12,103.45 -90.42,141.75 -38.3,38.26 -83.27,67.4 -135,87.34 -51.72,19.98 -107.75,29.93 -168,29.93zm0 -131.96c37.47,0 72.49,-5.68 105.07,-17.09 32.57,-11.42 60.49,-29.74 83.7,-54.77 23.22,-25.27 41.54,-58.04 54.96,-98.15 13.47,-40.32 20.18,-89.39 20.18,-147.04 0,-57.61 -6.71,-106.92 -20.18,-147.63 -13.42,-40.51 -31.74,-73.52 -54.96,-98.75 -23.21,-25.07 -51.13,-43.39 -83.7,-54.8 -32.58,-11.41 -67.6,-17.09 -105.07,-17.09 -37.47,0 -72.09,5.68 -103.88,17.09 -31.74,11.41 -59.46,29.73 -83.07,54.8 -23.61,25.23 -42.17,58.24 -55.59,98.75 -13.43,40.71 -20.18,90.02 -20.18,147.63 0,57.65 6.75,106.72 20.18,147.04 13.42,40.11 31.98,72.88 55.59,98.15 23.61,25.03 51.33,43.35 83.07,54.77 31.79,11.41 66.41,17.09 103.88,17.09z"/>
   <polygon id="7" class="fil2" points="8835.07,1992.88 8835.07,2651.42 8695.81,2651.42 8695.81,1776.59 8902.27,1776.59 9139.33,2349.65 9394.67,1776.59 9584.07,1776.59 9584.07,2651.42 9428.9,2651.42 9428.9,2002.63 9197.96,2517.02 9059.89,2517.02 "/>
   <path id="8" class="fil2" d="M10551.73 1908.55l-283.5 0c-3.23,82.28 -7.1,155.6 -11.6,219.96 -4.46,64.32 -10.39,121.57 -17.69,171.63 -7.35,50.11 -16.51,93.7 -27.52,130.73 -10.98,37.08 -24.64,68.66 -40.91,94.72l381.22 0 0 -617.04zm124.6 742.87l-588.93 0 -12.2 208.95 -133.18 0 0 -334.78 63.53 0c22.82,-21.2 41.74,-51.33 56.82,-90.42 15.08,-39.12 27.08,-88.79 36.05,-149.08 8.96,-60.26 15.87,-132.35 20.77,-216.25 4.89,-83.91 8.96,-181.63 12.2,-293.25l576.69 0 0 749 114.86 0 0 334.78 -134.4 0 -12.21 -208.95z"/>
   <polygon id="9" class="fil2" points="10959.79,2651.42 10959.79,1776.59 11114.96,1776.59 11114.96,2432.73 11549.9,1776.59 11711.19,1776.59 11711.19,2651.42 11553.58,2651.42 11553.58,1998.96 11119.85,2651.42 "/>
   <path id="10" class="fil2" d="M12129.05 2664.85c-33.37,0 -64.32,-2.41 -92.83,-7.31 -28.51,-4.89 -54.37,-11.01 -77.58,-18.32 -23.22,-7.34 -43.79,-15.47 -61.72,-24.44 -17.92,-8.96 -33.01,-17.53 -45.21,-25.66l40.32 -124.65c30.95,18.76 66.61,34.83 106.92,48.29 40.31,13.42 84.89,20.14 133.77,20.14 24.44,0 47.65,-2.45 69.65,-7.31 21.99,-4.89 41.14,-12.83 57.44,-23.85 16.27,-10.97 29.1,-25.23 38.46,-42.76 9.4,-17.49 14.06,-39.28 14.06,-65.34 0,-48.09 -14.45,-81.46 -43.36,-100.21 -28.94,-18.72 -73.51,-28.11 -133.8,-28.11l-120.94 0 0 -128.28 122.16 0c47.26,0 83.9,-10.59 109.96,-31.55 26.06,-21.2 39.09,-51.92 39.09,-92.47 0,-44.58 -14.02,-75.34 -42.13,-92.43 -28.11,-16.9 -66.17,-25.47 -114.26,-25.47 -43.16,0 -83.28,5.69 -120.35,17.1 -37.04,11.21 -68.62,25.07 -94.68,41.34l-43.99 -121.57c30.13,-18.91 67.21,-35.02 111.19,-48.65 43.98,-13.46 94.09,-20.17 150.27,-20.17 97.76,0 173.93,18.95 228.49,56.81 54.57,37.87 81.85,95.91 81.85,174.13 0,56.18 -15.67,100.56 -47.02,133.17 -31.35,32.58 -72.69,54.96 -124.02,67.2 63.53,9.76 113,31.35 148.46,64.76 35.41,33.36 53.14,80.62 53.14,141.7 0,46.43 -9.16,86.35 -27.48,119.76 -18.32,33.4 -43,60.68 -73.91,81.84 -30.96,21.21 -67.44,36.88 -109.37,47.07 -41.93,10.15 -86.15,15.24 -132.58,15.24z"/>
   <path id="11" class="fil2" d="M12909.79 1918.34l-125.83 381.21 251.66 0 -125.83 -381.21zm167.37 507.04l-334.78 0 -74.51 226.04 -136.84 0 290.79 -874.83 197.93 0 290.79 874.83 -158.84 0 -74.54 -226.04z"/>
   <path id="12" class="fil2" d="M13795.6 1731.38c-37.47,0 -70.05,-4.85 -97.72,-14.64 -27.72,-9.76 -50.74,-23.42 -69.06,-40.95 -18.32,-17.49 -31.98,-37.86 -40.9,-61.08 -8.97,-23.22 -13.47,-48.25 -13.47,-75.14l138.07 0c0,32.58 7.35,55.99 22,70.24 14.65,14.26 35.02,21.4 61.08,21.4 26.06,0 46.43,-7.14 61.08,-21.4 14.69,-14.25 21.99,-37.66 21.99,-70.24l138.07 0c0,26.89 -4.46,51.92 -13.42,75.14 -8.96,23.22 -22.62,43.59 -40.94,61.08 -18.32,17.53 -41.34,31.19 -69.02,40.95 -27.72,9.79 -60.29,14.64 -97.76,14.64zm-367.75 920.04l0 -874.83 155.17 0 0 656.14 434.95 -656.14 161.29 0 0 874.83 -157.62 0 0 -652.46 -433.72 652.46 -160.07 0z"/>
   <polygon id="13" class="fil2" points="14925.81,2282.45 14523.83,2282.45 14523.83,2651.42 14368.66,2651.42 14368.66,1776.59 14523.83,1776.59 14523.83,2150.5 14925.81,2150.5 14925.81,1776.59 15080.98,1776.59 15080.98,2651.42 14925.81,2651.42 "/>
   <path id="14" class="fil2" d="M15577.01 1918.34l-125.84 381.21 251.67 0 -125.83 -381.21zm167.37 507.04l-334.78 0 -74.51 226.04 -136.85 0 290.8 -874.83 197.93 0 290.79 874.83 -158.84 0 -74.54 -226.04z"/>
  </g>
 </g>
</svg>
