<svg width="68" height="52" xmlns="http://www.w3.org/2000/svg"><g transform="translate(1 1)" fill="none" fill-rule="evenodd"><rect stroke="#000" stroke-width="2" fill="#FFF" x="2.694" width="60.612" height="50" rx="2"/><path d="M0 2.003A2 2 0 0 1 1.993 0h62.014C65.107 0 66 .888 66 2.003v12.186H0V2.003z" stroke="#000" stroke-width="2" fill="#FFF"/><path d="M11.617 34.46h-.168v.225l-1.347 1.801h1.347v5.406h1.347v-5.406h1.347l-1.347-1.801v-.226h-.168l-.506-.675-.505.675zm5.388 0h-.168v.225l-1.347 1.801h1.347v5.406h1.347v-5.406h1.347l-1.347-1.801v-.226h-.169l-.505-.675-.505.675zm-6.903 8.783h9.429v1.352h-9.429v-1.352z" fill="#000"/><path stroke="#000" stroke-width="2" fill="#FECB30" d="M27.612 0h11.449v50H27.612z"/></g></svg>