<svg width="58" height="51" xmlns="http://www.w3.org/2000/svg" xmlns:xlink="http://www.w3.org/1999/xlink"><defs><path id="a" d="M20.714 10.869h15.743v1.672H20.714z"/><mask id="b" x="0" y="0" width="15.743" height="1.672" fill="#fff"><use xlink:href="#a"/></mask></defs><g fill="none" fill-rule="evenodd"><path d="M22.368 7.525h12.435c8.24 0 15.26 5.278 17.917 12.668l3.76-4.235.691 2.359-3.644 4.856c.217 1.16.33 2.357.33 3.581a19.246 19.246 0 0 1-10.789 17.331v6.079h-6.626v-4.25c-.54.046-1.087.07-1.639.07H22.368c-.28 0-.557-.006-.834-.018v4.198h-6.626v-5.71C9.842 42.277 5.902 37.95 4.213 32.607H0V20.902h4.213a19.263 19.263 0 0 1 5.861-8.84l-2.67-7.416 1.438-1.302s5.772.744 7.374 1.844c1.133.778 2.016 1.753 2.673 2.656 1.128-.21 2.291-.32 3.48-.32z" fill="#FFF"/><path d="M22.368 7.525h12.435c8.24 0 15.26 5.278 17.917 12.668l3.76-4.235.691 2.359-3.644 4.856c.217 1.16.33 2.357.33 3.581a19.246 19.246 0 0 1-10.789 17.331v6.079h-6.626v-4.25c-.54.046-1.087.07-1.639.07H22.368c-.28 0-.557-.006-.834-.018v4.198h-6.626v-5.71C9.842 42.277 5.902 37.95 4.213 32.607H0V20.902h4.213a19.263 19.263 0 0 1 5.861-8.84l-2.67-7.416 1.438-1.302s5.772.744 7.374 1.844c1.133.778 2.016 1.753 2.673 2.656 1.128-.21 2.291-.32 3.48-.32zM1.67 30.95h3.601s.993 3.98 4.442 7.748c3.45 3.768 6.864 4.637 6.864 4.637l-.002 5.158h3.348l-.015-4.398.848.227 13.924-.01c.402 0 3.447-.361 3.447-.361l.004 4.506h3.323v-5.412s5.646-3.291 7.408-5.894c1.762-2.604 3.373-5.508 3.373-10.798 0-5.291-3.794-11.984-7.944-14.417-4.15-2.434-7.681-2.73-11.457-2.73h-8.546c-2.06 0-5.49.77-5.49.77s-2.156-2.843-3.912-3.66c-1.756-.819-5.249-1.312-5.249-1.312l-.521.37 2.957 6.994s-3.091 2.58-4.535 4.808c-1.444 2.227-2.136 5.387-2.136 5.387H1.595l.075 8.387z" fill="#000"/><g transform="translate(22.371)"><ellipse fill="#FECB30" cx="6.214" cy="7.107" rx="5.386" ry="5.434"/><path d="M6.214 10.869c2.517 0 4.557-2.059 4.557-4.599s-2.04-4.598-4.557-4.598c-2.517 0-4.557 2.059-4.557 4.598 0 2.54 2.04 4.599 4.557 4.599zm0 1.672C2.782 12.541 0 9.734 0 6.271 0 2.806 2.782 0 6.214 0c3.432 0 6.215 2.807 6.215 6.27 0 3.464-2.783 6.271-6.215 6.271z" fill="#000" fill-rule="nonzero"/></g><use stroke="#000" mask="url(#b)" stroke-width="4" xlink:href="#a"/><ellipse fill="#000" cx="14.086" cy="20.902" rx="1.657" ry="1.672"/></g></svg>