<?xml version="1.0" encoding="UTF-8"?><svg width="50px" height="44px" viewBox="0 0 50 44" version="1.1" xmlns="http://www.w3.org/2000/svg" xmlns:xlink="http://www.w3.org/1999/xlink"> <title>Nal_icon</title> <defs> <rect id="path-1" x="0" y="0" width="45" height="21"></rect> <rect id="path-2" x="10" y="0" width="36" height="21"></rect> <rect id="path-3" x="0" y="0" width="45.8996582" height="21"></rect> <rect id="path-4" x="10" y="0" width="36" height="21"></rect> </defs> <g id="Page-1" stroke="none" stroke-width="1" fill="none" fill-rule="evenodd"> <g id="inner_promo_yacard_v3" transform="translate(-856.000000, -772.000000)"> <g id="Nal_icon" transform="translate(856.000000, 772.000000)"> <g id="Group-26" transform="translate(25.189639, 15.416529) rotate(-13.000000) translate(-25.189639, -15.416529) translate(2.189639, 4.916529)"> <g id="Rectangle-14"> <use fill="#FFFFFF" fill-rule="evenodd" xlink:href="#path-1"></use> <rect stroke="#000000" stroke-width="1.5" x="0.75" y="0.75" width="43.5" height="19.5"></rect> </g> <g id="Rectangle-14-Copy-2"> <use fill="#FECB30" fill-rule="evenodd" xlink:href="#path-2"></use> <rect stroke="#000000" stroke-width="1.5" x="10.75" y="0.75" width="34.5" height="19.5"></rect> </g> <path d="M19.9410112,12.1053371 C19.9410112,12.5772496 19.8567424,13.0091273 19.6882022,13.4009831 C19.5196621,13.792839 19.2816027,14.1299143 18.9740169,14.4122191 C18.666431,14.6945239 18.297755,14.9136228 17.8679775,15.0695225 C17.4382001,15.2254221 16.9662947,15.3033708 16.4522472,15.3033708 C15.8623566,15.3033708 15.3735974,15.2359557 14.9859551,15.1011236 C14.5983127,14.9662915 14.2696643,14.8146076 14,14.6460674 L14,13.0912921 C14.2865183,13.2766863 14.6214868,13.4578643 15.0049157,13.6348315 C15.3883446,13.8117986 15.8328626,13.9002809 16.3384831,13.9002809 C16.9199467,13.9002809 17.3644648,13.7359567 17.6720506,13.4073034 C17.9796364,13.07865 18.133427,12.6699463 18.133427,12.1811798 C18.133427,11.6924133 18.0133439,11.3047767 17.7731742,11.0182584 C17.5330044,10.7317401 17.1643283,10.5884831 16.6671348,10.5884831 C16.3721895,10.5884831 16.12781,10.6390444 15.9339888,10.7401685 C15.7401676,10.8412926 15.5969106,10.9550555 15.5042135,11.0814607 L14.1896067,11.0814607 L14.1896067,6.11376404 L19.5365169,6.11376404 L19.5365169,7.58005618 L15.7317416,7.58005618 L15.7317416,9.62780899 C15.8750007,9.51825788 16.0603921,9.42134874 16.2879213,9.33707865 C16.5154506,9.25280857 16.806178,9.21067416 17.1601124,9.21067416 C18.0280942,9.21067416 18.708565,9.46558734 19.2015449,9.97542135 C19.6945249,10.4852554 19.9410112,11.1952202 19.9410112,12.1053371 Z M23.9733146,15.3033708 C23.5098291,15.3033708 23.0842716,15.2148885 22.6966292,15.0379213 C22.3089868,14.8609542 21.976125,14.5849738 21.6980337,14.2099719 C21.4199424,13.83497 21.2029502,13.352531 21.0470506,12.7626404 C20.8911509,12.1727499 20.8132022,11.4648918 20.8132022,10.6390449 C20.8132022,9.81319812 20.8911509,9.10744675 21.0470506,8.52176966 C21.2029502,7.93609258 21.4199424,7.4557603 21.6980337,7.08075843 C21.976125,6.70575655 22.3089868,6.43188289 22.6966292,6.25912921 C23.0842716,6.08637554 23.5098291,6 23.9733146,6 C24.4283731,6 24.8476104,6.08637554 25.2310393,6.25912921 C25.6144682,6.43188289 25.9452233,6.70364983 26.2233146,7.0744382 C26.5014059,7.44522657 26.7162914,7.92345213 26.8679775,8.50912921 C27.0196637,9.0948063 27.0955056,9.79634423 27.0955056,10.613764 C27.0955056,11.4396109 27.0196637,12.147469 26.8679775,12.7373596 C26.7162914,13.3272501 26.5014059,13.8117959 26.2233146,14.1910112 C25.9452233,14.5702266 25.6144682,14.8504204 25.2310393,15.0316011 C24.8476104,15.2127818 24.4283731,15.3033708 23.9733146,15.3033708 Z M23.9606742,13.8876404 C24.1797764,13.8876404 24.3735947,13.8349724 24.5421348,13.7296348 C24.710675,13.6242972 24.8497186,13.445226 24.9592697,13.1924157 C25.0688208,12.9396055 25.1509829,12.6067436 25.2057584,12.1938202 C25.260534,11.7808968 25.2879213,11.266857 25.2879213,10.6516854 C25.2879213,10.0449408 25.260534,9.53511442 25.2057584,9.12219101 C25.1509829,8.7092676 25.0709275,8.37640576 24.9655899,8.12359551 C24.8602523,7.87078525 24.7254222,7.68960729 24.5610955,7.58005618 C24.3967688,7.47050507 24.2008438,7.41573034 23.9733146,7.41573034 C23.7457854,7.41573034 23.5477537,7.47050507 23.3792135,7.58005618 C23.2106733,7.68960729 23.069523,7.87078525 22.9557584,8.12359551 C22.8419938,8.37640576 22.757725,8.7092676 22.7029494,9.12219101 C22.6481739,9.53511442 22.6207865,10.0449408 22.6207865,10.6516854 C22.6207865,11.266857 22.6481739,11.7808968 22.7029494,12.1938202 C22.757725,12.6067436 22.8419938,12.9396055 22.9557584,13.1924157 C23.069523,13.445226 23.2085666,13.6242972 23.3728933,13.7296348 C23.5372199,13.8349724 23.7331449,13.8876404 23.9606742,13.8876404 Z M30.9255618,15.3033708 C30.4620763,15.3033708 30.0365188,15.2148885 29.6488764,15.0379213 C29.261234,14.8609542 28.9283722,14.5849738 28.6502809,14.2099719 C28.3721896,13.83497 28.1551974,13.352531 27.9992978,12.7626404 C27.8433981,12.1727499 27.7654494,11.4648918 27.7654494,10.6390449 C27.7654494,9.81319812 27.8433981,9.10744675 27.9992978,8.52176966 C28.1551974,7.93609258 28.3721896,7.4557603 28.6502809,7.08075843 C28.9283722,6.70575655 29.261234,6.43188289 29.6488764,6.25912921 C30.0365188,6.08637554 30.4620763,6 30.9255618,6 C31.3806203,6 31.7998576,6.08637554 32.1832865,6.25912921 C32.5667154,6.43188289 32.8974705,6.70364983 33.1755618,7.0744382 C33.4536531,7.44522657 33.6685386,7.92345213 33.8202247,8.50912921 C33.9719109,9.0948063 34.0477528,9.79634423 34.0477528,10.613764 C34.0477528,11.4396109 33.9719109,12.147469 33.8202247,12.7373596 C33.6685386,13.3272501 33.4536531,13.8117959 33.1755618,14.1910112 C32.8974705,14.5702266 32.5667154,14.8504204 32.1832865,15.0316011 C31.7998576,15.2127818 31.3806203,15.3033708 30.9255618,15.3033708 Z M30.9129213,13.8876404 C31.1320236,13.8876404 31.3258419,13.8349724 31.494382,13.7296348 C31.6629222,13.6242972 31.8019657,13.445226 31.9115169,13.1924157 C32.021068,12.9396055 32.1032301,12.6067436 32.1580056,12.1938202 C32.2127812,11.7808968 32.2401685,11.266857 32.2401685,10.6516854 C32.2401685,10.0449408 32.2127812,9.53511442 32.1580056,9.12219101 C32.1032301,8.7092676 32.0231747,8.37640576 31.9178371,8.12359551 C31.8124995,7.87078525 31.6776694,7.68960729 31.5133427,7.58005618 C31.349016,7.47050507 31.153091,7.41573034 30.9255618,7.41573034 C30.6980326,7.41573034 30.5000008,7.47050507 30.3314607,7.58005618 C30.1629205,7.68960729 30.0217702,7.87078525 29.9080056,8.12359551 C29.794241,8.37640576 29.7099722,8.7092676 29.6551966,9.12219101 C29.6004211,9.53511442 29.5730337,10.0449408 29.5730337,10.6516854 C29.5730337,11.266857 29.6004211,11.7808968 29.6551966,12.1938202 C29.7099722,12.6067436 29.794241,12.9396055 29.9080056,13.1924157 C30.0217702,13.445226 30.1608138,13.6242972 30.3251404,13.7296348 C30.4894671,13.8349724 30.6853921,13.8876404 30.9129213,13.8876404 Z M37.877809,15.3033708 C37.4143235,15.3033708 36.988766,15.2148885 36.6011236,15.0379213 C36.2134812,14.8609542 35.8806194,14.5849738 35.6025281,14.2099719 C35.3244368,13.83497 35.1074446,13.352531 34.9515449,12.7626404 C34.7956453,12.1727499 34.7176966,11.4648918 34.7176966,10.6390449 C34.7176966,9.81319812 34.7956453,9.10744675 34.9515449,8.52176966 C35.1074446,7.93609258 35.3244368,7.4557603 35.6025281,7.08075843 C35.8806194,6.70575655 36.2134812,6.43188289 36.6011236,6.25912921 C36.988766,6.08637554 37.4143235,6 37.877809,6 C38.3328674,6 38.7521048,6.08637554 39.1355337,6.25912921 C39.5189626,6.43188289 39.8497177,6.70364983 40.127809,7.0744382 C40.4059003,7.44522657 40.6207858,7.92345213 40.7724719,8.50912921 C40.9241581,9.0948063 41,9.79634423 41,10.613764 C41,11.4396109 40.9241581,12.147469 40.7724719,12.7373596 C40.6207858,13.3272501 40.4059003,13.8117959 40.127809,14.1910112 C39.8497177,14.5702266 39.5189626,14.8504204 39.1355337,15.0316011 C38.7521048,15.2127818 38.3328674,15.3033708 37.877809,15.3033708 Z M37.8651685,13.8876404 C38.0842708,13.8876404 38.278089,13.8349724 38.4466292,13.7296348 C38.6151694,13.6242972 38.7542129,13.445226 38.863764,13.1924157 C38.9733152,12.9396055 39.0554773,12.6067436 39.1102528,12.1938202 C39.1650284,11.7808968 39.1924157,11.266857 39.1924157,10.6516854 C39.1924157,10.0449408 39.1650284,9.53511442 39.1102528,9.12219101 C39.0554773,8.7092676 38.9754219,8.37640576 38.8700843,8.12359551 C38.7647467,7.87078525 38.6299166,7.68960729 38.4655899,7.58005618 C38.3012632,7.47050507 38.1053382,7.41573034 37.877809,7.41573034 C37.6502798,7.41573034 37.452248,7.47050507 37.2837079,7.58005618 C37.1151677,7.68960729 36.9740174,7.87078525 36.8602528,8.12359551 C36.7464882,8.37640576 36.6622194,8.7092676 36.6074438,9.12219101 C36.5526683,9.53511442 36.5252809,10.0449408 36.5252809,10.6516854 C36.5252809,11.266857 36.5526683,11.7808968 36.6074438,12.1938202 C36.6622194,12.6067436 36.7464882,12.9396055 36.8602528,13.1924157 C36.9740174,13.445226 37.113061,13.6242972 37.2773876,13.7296348 C37.4417143,13.8349724 37.6376393,13.8876404 37.8651685,13.8876404 Z" id="5000-copy" fill="#1C1C1C"></path> </g> <g id="Group-27" transform="translate(4.000000, 23.000000)"> <g id="Rectangle-14-Copy"> <use fill="#FFFFFF" fill-rule="evenodd" xlink:href="#path-3"></use> <rect stroke="#000000" stroke-width="1.5" x="0.75" y="0.75" width="44.3996582" height="19.5"></rect> </g> <g id="Rectangle-14-Copy-3"> <use fill="#FECB30" fill-rule="evenodd" xlink:href="#path-4"></use> <rect stroke="#000000" stroke-width="1.5" x="10.75" y="0.75" width="34.5" height="19.5"></rect> </g> <path d="M19.9410112,12.1053371 C19.9410112,12.5772496 19.8567424,13.0091273 19.6882022,13.4009831 C19.5196621,13.792839 19.2816027,14.1299143 18.9740169,14.4122191 C18.666431,14.6945239 18.297755,14.9136228 17.8679775,15.0695225 C17.4382001,15.2254221 16.9662947,15.3033708 16.4522472,15.3033708 C15.8623566,15.3033708 15.3735974,15.2359557 14.9859551,15.1011236 C14.5983127,14.9662915 14.2696643,14.8146076 14,14.6460674 L14,13.0912921 C14.2865183,13.2766863 14.6214868,13.4578643 15.0049157,13.6348315 C15.3883446,13.8117986 15.8328626,13.9002809 16.3384831,13.9002809 C16.9199467,13.9002809 17.3644648,13.7359567 17.6720506,13.4073034 C17.9796364,13.07865 18.133427,12.6699463 18.133427,12.1811798 C18.133427,11.6924133 18.0133439,11.3047767 17.7731742,11.0182584 C17.5330044,10.7317401 17.1643283,10.5884831 16.6671348,10.5884831 C16.3721895,10.5884831 16.12781,10.6390444 15.9339888,10.7401685 C15.7401676,10.8412926 15.5969106,10.9550555 15.5042135,11.0814607 L14.1896067,11.0814607 L14.1896067,6.11376404 L19.5365169,6.11376404 L19.5365169,7.58005618 L15.7317416,7.58005618 L15.7317416,9.62780899 C15.8750007,9.51825788 16.0603921,9.42134874 16.2879213,9.33707865 C16.5154506,9.25280857 16.806178,9.21067416 17.1601124,9.21067416 C18.0280942,9.21067416 18.708565,9.46558734 19.2015449,9.97542135 C19.6945249,10.4852554 19.9410112,11.1952202 19.9410112,12.1053371 Z M23.9733146,15.3033708 C23.5098291,15.3033708 23.0842716,15.2148885 22.6966292,15.0379213 C22.3089868,14.8609542 21.976125,14.5849738 21.6980337,14.2099719 C21.4199424,13.83497 21.2029502,13.352531 21.0470506,12.7626404 C20.8911509,12.1727499 20.8132022,11.4648918 20.8132022,10.6390449 C20.8132022,9.81319812 20.8911509,9.10744675 21.0470506,8.52176966 C21.2029502,7.93609258 21.4199424,7.4557603 21.6980337,7.08075843 C21.976125,6.70575655 22.3089868,6.43188289 22.6966292,6.25912921 C23.0842716,6.08637554 23.5098291,6 23.9733146,6 C24.4283731,6 24.8476104,6.08637554 25.2310393,6.25912921 C25.6144682,6.43188289 25.9452233,6.70364983 26.2233146,7.0744382 C26.5014059,7.44522657 26.7162914,7.92345213 26.8679775,8.50912921 C27.0196637,9.0948063 27.0955056,9.79634423 27.0955056,10.613764 C27.0955056,11.4396109 27.0196637,12.147469 26.8679775,12.7373596 C26.7162914,13.3272501 26.5014059,13.8117959 26.2233146,14.1910112 C25.9452233,14.5702266 25.6144682,14.8504204 25.2310393,15.0316011 C24.8476104,15.2127818 24.4283731,15.3033708 23.9733146,15.3033708 Z M23.9606742,13.8876404 C24.1797764,13.8876404 24.3735947,13.8349724 24.5421348,13.7296348 C24.710675,13.6242972 24.8497186,13.445226 24.9592697,13.1924157 C25.0688208,12.9396055 25.1509829,12.6067436 25.2057584,12.1938202 C25.260534,11.7808968 25.2879213,11.266857 25.2879213,10.6516854 C25.2879213,10.0449408 25.260534,9.53511442 25.2057584,9.12219101 C25.1509829,8.7092676 25.0709275,8.37640576 24.9655899,8.12359551 C24.8602523,7.87078525 24.7254222,7.68960729 24.5610955,7.58005618 C24.3967688,7.47050507 24.2008438,7.41573034 23.9733146,7.41573034 C23.7457854,7.41573034 23.5477537,7.47050507 23.3792135,7.58005618 C23.2106733,7.68960729 23.069523,7.87078525 22.9557584,8.12359551 C22.8419938,8.37640576 22.757725,8.7092676 22.7029494,9.12219101 C22.6481739,9.53511442 22.6207865,10.0449408 22.6207865,10.6516854 C22.6207865,11.266857 22.6481739,11.7808968 22.7029494,12.1938202 C22.757725,12.6067436 22.8419938,12.9396055 22.9557584,13.1924157 C23.069523,13.445226 23.2085666,13.6242972 23.3728933,13.7296348 C23.5372199,13.8349724 23.7331449,13.8876404 23.9606742,13.8876404 Z M30.9255618,15.3033708 C30.4620763,15.3033708 30.0365188,15.2148885 29.6488764,15.0379213 C29.261234,14.8609542 28.9283722,14.5849738 28.6502809,14.2099719 C28.3721896,13.83497 28.1551974,13.352531 27.9992978,12.7626404 C27.8433981,12.1727499 27.7654494,11.4648918 27.7654494,10.6390449 C27.7654494,9.81319812 27.8433981,9.10744675 27.9992978,8.52176966 C28.1551974,7.93609258 28.3721896,7.4557603 28.6502809,7.08075843 C28.9283722,6.70575655 29.261234,6.43188289 29.6488764,6.25912921 C30.0365188,6.08637554 30.4620763,6 30.9255618,6 C31.3806203,6 31.7998576,6.08637554 32.1832865,6.25912921 C32.5667154,6.43188289 32.8974705,6.70364983 33.1755618,7.0744382 C33.4536531,7.44522657 33.6685386,7.92345213 33.8202247,8.50912921 C33.9719109,9.0948063 34.0477528,9.79634423 34.0477528,10.613764 C34.0477528,11.4396109 33.9719109,12.147469 33.8202247,12.7373596 C33.6685386,13.3272501 33.4536531,13.8117959 33.1755618,14.1910112 C32.8974705,14.5702266 32.5667154,14.8504204 32.1832865,15.0316011 C31.7998576,15.2127818 31.3806203,15.3033708 30.9255618,15.3033708 Z M30.9129213,13.8876404 C31.1320236,13.8876404 31.3258419,13.8349724 31.494382,13.7296348 C31.6629222,13.6242972 31.8019657,13.445226 31.9115169,13.1924157 C32.021068,12.9396055 32.1032301,12.6067436 32.1580056,12.1938202 C32.2127812,11.7808968 32.2401685,11.266857 32.2401685,10.6516854 C32.2401685,10.0449408 32.2127812,9.53511442 32.1580056,9.12219101 C32.1032301,8.7092676 32.0231747,8.37640576 31.9178371,8.12359551 C31.8124995,7.87078525 31.6776694,7.68960729 31.5133427,7.58005618 C31.349016,7.47050507 31.153091,7.41573034 30.9255618,7.41573034 C30.6980326,7.41573034 30.5000008,7.47050507 30.3314607,7.58005618 C30.1629205,7.68960729 30.0217702,7.87078525 29.9080056,8.12359551 C29.794241,8.37640576 29.7099722,8.7092676 29.6551966,9.12219101 C29.6004211,9.53511442 29.5730337,10.0449408 29.5730337,10.6516854 C29.5730337,11.266857 29.6004211,11.7808968 29.6551966,12.1938202 C29.7099722,12.6067436 29.794241,12.9396055 29.9080056,13.1924157 C30.0217702,13.445226 30.1608138,13.6242972 30.3251404,13.7296348 C30.4894671,13.8349724 30.6853921,13.8876404 30.9129213,13.8876404 Z M37.877809,15.3033708 C37.4143235,15.3033708 36.988766,15.2148885 36.6011236,15.0379213 C36.2134812,14.8609542 35.8806194,14.5849738 35.6025281,14.2099719 C35.3244368,13.83497 35.1074446,13.352531 34.9515449,12.7626404 C34.7956453,12.1727499 34.7176966,11.4648918 34.7176966,10.6390449 C34.7176966,9.81319812 34.7956453,9.10744675 34.9515449,8.52176966 C35.1074446,7.93609258 35.3244368,7.4557603 35.6025281,7.08075843 C35.8806194,6.70575655 36.2134812,6.43188289 36.6011236,6.25912921 C36.988766,6.08637554 37.4143235,6 37.877809,6 C38.3328674,6 38.7521048,6.08637554 39.1355337,6.25912921 C39.5189626,6.43188289 39.8497177,6.70364983 40.127809,7.0744382 C40.4059003,7.44522657 40.6207858,7.92345213 40.7724719,8.50912921 C40.9241581,9.0948063 41,9.79634423 41,10.613764 C41,11.4396109 40.9241581,12.147469 40.7724719,12.7373596 C40.6207858,13.3272501 40.4059003,13.8117959 40.127809,14.1910112 C39.8497177,14.5702266 39.5189626,14.8504204 39.1355337,15.0316011 C38.7521048,15.2127818 38.3328674,15.3033708 37.877809,15.3033708 Z M37.8651685,13.8876404 C38.0842708,13.8876404 38.278089,13.8349724 38.4466292,13.7296348 C38.6151694,13.6242972 38.7542129,13.445226 38.863764,13.1924157 C38.9733152,12.9396055 39.0554773,12.6067436 39.1102528,12.1938202 C39.1650284,11.7808968 39.1924157,11.266857 39.1924157,10.6516854 C39.1924157,10.0449408 39.1650284,9.53511442 39.1102528,9.12219101 C39.0554773,8.7092676 38.9754219,8.37640576 38.8700843,8.12359551 C38.7647467,7.87078525 38.6299166,7.68960729 38.4655899,7.58005618 C38.3012632,7.47050507 38.1053382,7.41573034 37.877809,7.41573034 C37.6502798,7.41573034 37.452248,7.47050507 37.2837079,7.58005618 C37.1151677,7.68960729 36.9740174,7.87078525 36.8602528,8.12359551 C36.7464882,8.37640576 36.6622194,8.7092676 36.6074438,9.12219101 C36.5526683,9.53511442 36.5252809,10.0449408 36.5252809,10.6516854 C36.5252809,11.266857 36.5526683,11.7808968 36.6074438,12.1938202 C36.6622194,12.6067436 36.7464882,12.9396055 36.8602528,13.1924157 C36.9740174,13.445226 37.113061,13.6242972 37.2773876,13.7296348 C37.4417143,13.8349724 37.6376393,13.8876404 37.8651685,13.8876404 Z" id="5000" fill="#1C1C1C"></path> </g> </g> </g> </g></svg>