<?xml version="1.0" encoding="UTF-8" standalone="no"?><svg width="51px" height="47px" viewBox="0 0 51 47" version="1.1" xmlns="http://www.w3.org/2000/svg" xmlns:xlink="http://www.w3.org/1999/xlink"> <title></title> <desc></desc> <defs></defs> <g id="Plus" stroke="none" stroke-width="1" fill="none" fill-rule="evenodd"> <g id="inner_promo_yacard_v3" transform="translate(-683.000000, -767.000000)"> <g id="Group-14" transform="translate(642.000000, 767.000000)"> <g id="Rectangle-916-+-Rectangle-918-Copy" transform="translate(41.000000, 0.000000)"> <g id="rubl" transform="translate(17.000000, 0.000000)"> <polygon id="Rectangle-2151-Copy" fill="#FFFFFF" points="30.4973585 13.5306122 30.4973585 16.2367347 27.7773585 16.2367347 27.7773585 18.9428571 0.68 18.9428571 0.68 6.62533427 3.4 6.62533427 3.4 3.91921182 6.12 3.91921182 6.12 1.21308937 33.2173585 1.21308937 33.2173585 13.5306122"></polygon> <path d="M1.36,6.76530612 L27.2,6.76530612 L27.2,18.2663265 L1.36,18.2663265 L1.36,6.76530612 L1.36,6.76530612 Z M0,5.4122449 L0,19.6193878 L28.56,19.6193878 L28.56,5.4122449 L0,5.4122449 L0,5.4122449 Z M2.72,5.4122449 L2.72,2.70612245 L31.28,2.70612245 L31.28,16.9132653 L28.56,16.9132653 L28.56,15.5602041 L29.92,15.5602041 L29.92,4.05918367 L4.08,4.05918367 L4.08,5.4122449 L2.72,5.4122449 L2.72,5.4122449 L2.72,5.4122449 Z M5.44,2.70612245 L5.44,0 L34,0 L34,14.2071429 L31.28,14.2071429 L31.28,12.8540816 L32.64,12.8540816 L32.64,1.35306122 L6.8,1.35306122 L6.8,2.70612245 L5.44,2.70612245 L5.44,2.70612245 Z" id="Shape" fill="#000000" fill-rule="nonzero"></path> <path d="M13.6,13.5306122 L13.6,14.2071429 L16.32,14.2071429 L16.32,15.5602041 L13.6,15.5602041 L13.6,16.9132653 L12.24,16.9132653 L12.24,15.5602041 L11.56,15.5602041 L11.56,14.2071429 L12.24,14.2071429 L12.24,8.11836735 L13.6,8.11836735 L13.6,8.22243336 C13.79964,8.15494473 14.0131553,8.11836735 14.2347653,8.11836735 L14.9759374,8.11836735 C16.4693499,8.11836735 17.68,9.33298075 17.68,10.8244898 C17.68,12.31904 16.4726877,13.5306122 14.9759374,13.5306122 L13.6,13.5306122 Z M13.6641509,9.42477129 L13.6641509,12.2242083 L15.0920103,12.2242083 C15.8603568,12.2242083 16.4867925,11.597533 16.4867925,10.8244898 C16.4867925,10.0460571 15.8623272,9.42477129 15.0920103,9.42477129 L13.6641509,9.42477129 Z" id="Rectangle-43" fill="#000000"></path> </g> <g id="wallet-logo-15-copy-3" transform="translate(0.000000, 18.266327)"> <path d="M3.31380673,10.3890567 C5.59915946,8.60278057 13.6014942,1.90864584 13.6014942,1.90864584 L13.6185094,12.8744536 L18.4085238,12.8499137 L18.383858,27.7943452 L2.26025463,27.712373 C1.30330158,27.712373 0.683657682,26.5601029 0.683657682,25.5580652 L0.680910502,14.662692 C0.680910502,13.2668817 0.553476862,12.5467625 3.31380673,10.3890567 Z" id="Fill-1" fill="#FECB30"></path> <path d="M13.0590559,3.3383475 L12.9395637,13.5544715 L17.7320253,13.5264353 L17.7073328,27.1178234 L2.26372942,27.0358512 C1.82531447,27.0358424 1.36365768,26.3407892 1.36365768,25.5580652 L1.36091048,14.6625223 C1.36079368,14.5726077 1.36649372,13.806462 1.40828339,13.5890393 C1.54071371,12.9000325 2.11282486,12.1882135 3.73391824,10.9210307 C4.59387256,10.2488737 13.0590559,3.3383475 13.0590559,3.3383475 Z M0.0724869028,13.3349061 C0.00857495134,13.6674264 -0.00187510466,13.9096627 0.000460667514,14.4918769 C0.000799697473,14.5770067 0.00365770291,25.5582349 0.00365770291,25.5582349 C0.00365768152,26.998774 0.926986701,28.3889036 2.26025463,28.3889036 L19.0627366,28.4743361 L19.0388275,12.2135728 L14.2950078,12.197932 L14.2814934,1.90760145 L14.2792438,0.457799575 L13.1638757,1.39083034 C13.0807524,1.46036489 12.9246752,1.5908329 12.7059399,1.77352773 C12.3413227,2.07806776 3.73997845,9.19561126 2.89371668,9.85706591 C1.0380369,11.3076212 0.281134553,12.2493568 0.0724869028,13.3349061 Z" id="Shape" fill="#000000" fill-rule="nonzero"></path> <polygon id="Fill-4" fill="#000000" points="12.9291181 12.7329834 12.9354778 18.9476275 2.78704477 26.1948191 14.865241 19.4769899 14.9609142 12.7960003"></polygon> <path d="M9.27888473,11.7875977 C9.75956615,11.2459185 10.461568,11.0546423 10.8471139,11.3605805 C11.2325912,11.6665187 11.1555505,12.3537778 10.6748006,12.8953922 C10.1943248,13.4370065 9.49211728,13.6280234 9.10657145,13.3220852 C8.72109415,13.0162118 8.7983404,12.329212 9.27888473,11.7875977" id="Fill-5" fill="#000000"></path> </g> <path d="M38.7516332,32.6004139 C38.7548182,36.6398972 35.4665206,39.9108362 31.4068226,39.9070208 L23.2401467,39.8993457 L23.2414314,38.5462851 L31.4081073,38.5539602 C34.7157852,38.5570688 37.3942287,35.8927646 37.3916336,32.6014753 L37.3871022,26.8544154 L35.7525076,28.3145017 L34.808692,27.3403081 L38.1477367,24.1383091 L41.3412408,27.3569694 L40.3733637,28.3075077 L38.7469559,26.6682883 L38.7516332,32.6004139 Z" id="Shape" fill="#000000" fill-rule="nonzero" transform="translate(32.290694, 32.022667) scale(1, -1) rotate(-90.000000) translate(-32.290694, -32.022667) "></path> </g> </g> </g> </g></svg>