<?xml version="1.0" encoding="UTF-8" standalone="no"?><svg width="45px" height="45px" viewBox="0 0 45 45" version="1.1" xmlns="http://www.w3.org/2000/svg" xmlns:xlink="http://www.w3.org/1999/xlink"> <title></title> <desc></desc> <defs></defs> <g id="Plus" stroke="none" stroke-width="1" fill="none" fill-rule="evenodd"> <g id="inner_promo_yacard_v3" transform="translate(-512.000000, -767.000000)"> <g id="Group-16" transform="translate(468.000000, 767.000000)"> <g id="Group-18" transform="translate(44.000000, 0.000000)"> <circle id="Oval" fill="#FFFFFF" cx="22.5" cy="22.5" r="21.5"></circle> <polygon id="Path-2" fill="#FFDB4D" points="2 18.9262695 4.07080078 18.4628906 5.40039063 21.6738281 8.21289063 21.9516602 9.78808594 24.3613281 12.6977539 23.8657227 11.2148438 27.6328125 14.4628906 30.3242188 14.5878906 36.8242188 15.2685547 39.362793 17.5854492 40.4145508 17.8632813 37.4726563 19.5961914 36.7919922 20.03125 32.9599609 21.949707 31.5375977 23.4970703 27.9838867 22.2275391 26.6865234 14.3183594 22.3916016 11.4458008 22.8549805 9.8984375 20.3764648 6.86376953 20.190918 6.58154297 18.921875 7.91113281 16.2861328 11.5664063 16.2299805 15.3378906 11.902832 20.9624023 12.2412109 17.6870117 7.91357422 20.8696289 7.26513672 19.1694336 5 15.6157227 5 14.6567383 6.79296875 13.2949219 6.88574219 11.0058594 5.12060547 8.06835938 5.74121094 4.51464844 10.3510742 2.41162109 14.7148438"></polygon> <polygon id="Path-3" fill="#FFDB4D" points="35.2021484 6 33.0708008 8.19628906 34.1220703 10.0541992 31.9951172 11.0131836 28.8120117 9.03466797 28.5947266 10.4936523 30.7626953 12.0732422 28.6313477 13.4956055 32.0317383 14.1118164 33.2646484 12.597168 35.3120117 12.6894531 36.9238281 13.9589844 39.3745117 14.6079102 39.3745117 16.6787109 35.171875 17.1743164 33.0727539 16.0302734 29.9501953 16.7714844 28.3100586 18.75 28 20.8769531 29.2973633 23.1333008 34.2407227 22.8549805 36.1264648 28.2578125 36.8398438 33.9389648 36.5620117 37.9560547 40.3935547 34.2773438 43.1499023 27.9711914 43.6176758 21.0537109 42.7836914 15.2109375 40.5273438 10.4160156"></polygon> <path d="M22.5,43.5 L22.5,43.5 C34.0979797,43.5 43.5,34.0979797 43.5,22.5 C43.5,10.9020203 34.0979797,1.5 22.5,1.5 C10.9020203,1.5 1.5,10.9020203 1.5,22.5 C1.5,34.0979797 10.9020203,43.5 22.5,43.5 L22.5,43.5 Z M22.5,45 L22.5,45 C10.0735931,45 0,34.9264069 0,22.5 C0,10.0735931 10.0735931,0 22.5,0 C34.9264069,0 45,10.0735931 45,22.5 C45,34.9264069 34.9264069,45 22.5,45 L22.5,45 Z" id="Shape" fill="#000000" fill-rule="nonzero"></path> <path d="M13.4090576,7.63355645 L15.75,7.90455255 L16.2687988,6.16920099 L18.4001465,5.80762872 L19.6652832,7.05762872 L17.5871582,7.28931817 L17.4250488,8.417492 L17.9960938,8.78004083 L20.0267334,11.2519647 L19.3236084,11.3678094 L17.7453613,10.1601678 L16.8407593,10.1944085 L16.7902832,11.4604608 L14.7176514,11.1031609 L11.826416,15.2047234 L7.59240723,15.5809441 L7.35266113,17.5490838 L6.00891113,18.9913445 L6.93830218,20.6097353 L9.32775879,21.0914422 L9.7980957,21.7251092 L11.02695,23.6414233 L14.7811279,23.4857293 L17.4916992,24.3730584 L18.9211426,25.2140008 L21.826416,27.0330519 L22.4458171,28.1066196 L21.4338379,30.7123488 L19.7115723,32.3903436 L19.1474609,36.0050164 L17.5396729,36.9698602 L17.3311768,39.285534 L16.0721436,38.5905877 L15.3953857,36.7743035 L15.4116211,30.1567498 L12.2285156,27.3744012 L14.2580566,23.38966 L11.095459,23.7204705 L9.54223633,21.835827 L8.15222168,21.5125848 L6.1204834,20.6031609 L5.32580566,17.7616082 L4.46057129,17.2368279 L3.16906738,17.2600213 L3.22937012,15.3878289 L1.7154541,14.3350945 L1,15.9950677 L1.84210205,16.8128777 L1.82928467,20.1299554 L3.79968262,19.1059075 L5.05853271,21.7622186 L7.48809814,23.1985589 L8.83557129,23.1541253 L9.91931152,25.1383782 L11.826416,25.1348992 L10.1909366,27.7508314 L13.8619385,31.1513787 L13.8787231,37.1398431 L15.0040283,40.0861321 L17.6386108,41.155346 L18.8740234,41.1437493 L18.9036255,38.1767083 L20.2524414,37.124096 L21.2746582,33.4691277 L23.2236003,32.1262539 L24.416232,27.9705716 L22.9913374,25.982833 L20.008776,23.794496 L18.0545868,22.8140096 L14.8676768,21.6264673 L11.578186,22.2028924 L11.1788585,20.9262604 L9.88419328,19.6097353 L8.07527516,19.6157168 L8.89752197,18.0482903 L8.90509033,17.1412469 L10.8528442,17.2048455 L12.3280029,17.1504632 L15.5493164,13.1255608 L17.8924561,13.1684075 L18.8504028,13.1482049 L22.8588257,13.1387444 L19.6009521,8.15681085 L22.121582,8.1150628 L22.1105347,7.11457452 L19.7577515,4.17451104 L14.8804932,4.21546563 L14.7859497,6.12434015 L13.8552246,6.15156183 L11.8640441,4 L10.1435547,5.08521661 L13.4090576,7.63355645 Z M32.1449585,8.49555597 L33.489224,9.90051576 L32.2495117,10.4962884 L28.7918701,8.23414239 L27.8519897,9.16999444 L27.8150058,11.390998 L30.329834,12.5333367 L27.8921509,13.1890984 L27.8811035,15.0888177 L32.309082,14.9704705 L33.8432007,13.4716302 L35.6211548,13.6906243 L36.793457,15.1954461 L38.815979,15.2059441 L38.8849487,16.1859857 L34.8306885,16.1425897 L33.6104126,15.1337396 L28.8274536,16.2654534 L28.7856445,17.169262 L26.8436279,18.1861688 L26.8945923,22.1333123 L28.8432007,24.1409417 L33.802063,24.1381951 L34.8494263,27.2036248 L35.8768921,33.1663934 L35.8445435,38.1815301 L37.5133057,36.8396111 L37.4125977,33.0250359 L36.4547119,26.9553338 L34.6546631,22.3844109 L29.3029785,22.3121453 L28.8779297,21.4076043 L28.8024902,19.1937371 L30.4425049,18.0116082 L30.3962402,17.4104119 L33.1391602,16.7153436 L34.6573486,17.8400994 L40.6113281,17.6235467 L40.4086914,14.2192498 L37.2451172,13.4547234 L36.194458,12.294201 L33.4849854,12.0000115 L31.826416,12.7501336 L28.8651733,14.1979485 L31.826416,12.5727654 L32.1547852,12.0631219 L29.7835693,10.6025506 L29.793335,10.3238641 L32.1472168,11.9618035 L35.8017578,10.4477654 L34.1104736,8.53199395 C34.1104736,8.53199395 35.9876789,7.45829202 36.0344238,7.40382013 L34.0078021,6.4363241 C33.9596831,6.49239718 32.1449585,8.49555597 32.1449585,8.49555597 Z" id="Shape" fill="#000000" fill-rule="nonzero"></path> </g> </g> </g> </g></svg>