<?xml version="1.0" encoding="UTF-8" standalone="no"?><svg width="29px" height="48px" viewBox="0 0 29 48" version="1.1" xmlns="http://www.w3.org/2000/svg" xmlns:xlink="http://www.w3.org/1999/xlink"> <title></title> <desc></desc> <defs></defs> <g id="Plus" stroke="none" stroke-width="1" fill="none" fill-rule="evenodd"> <g id="inner_promo_yacard_v3" transform="translate(-1043.000000, -768.000000)"> <g id="Group-9" transform="translate(991.000000, 769.000000)"> <g id="cell-phone-balance" transform="translate(53.000000, 0.000000)"> <rect id="Rectangle-647" stroke="#000000" stroke-width="2" fill="#FFFFFF" x="0" y="0" width="27" height="46" rx="6"></rect> <rect id="Rectangle-6217" stroke="#000000" stroke-width="2" fill="#FECB30" x="3.17647059" y="6.34482759" width="20.6470588" height="29.3448276"></rect> <rect id="Rectangle-2186" fill="#000000" x="9.52941176" y="2.37931034" width="7.14705882" height="1.5862069"></rect> <g id="Oval-388-+-Rectangle-2291" transform="translate(7.147059, 14.275862)"> <path d="M7.50802139,7.13793103 C9.5015626,7.13793103 11.1176471,5.54005074 11.1176471,3.56896552 C11.1176471,1.59788029 9.5015626,0 7.50802139,0 L3.17647059,0 L3.17647059,7.13793103 L7.50802139,7.13793103 Z" id="Oval-388" stroke="#000000" stroke-width="2"></path> <path d="M3.97058824,9.51622718 L3.97058824,0.793103448 L2.38235294,0.793103448 L2.38235294,9.51622718 L0.0060851927,9.51622718 L0.0060851927,11.1044625 L2.38235294,11.1044625 L2.38235294,14.2758621 L3.97058824,14.2758621 L3.97058824,11.1044625 L9.52332657,11.1044625 L9.52332657,9.51622718 L3.97058824,9.51622718 Z" id="Rectangle-2289" fill="#000000"></path> </g> <ellipse id="Oval-1905" stroke="#000000" stroke-width="2" cx="13.1029412" cy="40.8448276" rx="1.98529412" ry="1.98275862"></ellipse> </g> </g> </g> </g></svg>