<svg width="69" height="53" xmlns="http://www.w3.org/2000/svg"><g transform="rotate(62 41.092 39.819)" fill="none" fill-rule="evenodd"><path d="M10.988 39.547l3.597 18.585s-8.463 4.09-11.39 5.396C.787 64.358.2 61.58.196 59.93c.004-.778.127-6.392 0-7.793-.092-1.792 1.485-3.7 2.398-4.197 3.407-3.502 8.393-8.393 8.393-8.393zm21.583 0s4.986 4.891 8.393 8.393c.913.497 2.49 2.405 2.398 4.197-.127 1.4-.004 7.015 0 7.793-.004 1.651-.591 4.427-2.997 3.598-2.928-1.306-11.391-5.396-11.391-5.396l3.597-18.585z" stroke="#000" stroke-width="2" fill="#FFF"/><path d="M8.213 31.54C8.829 7.654 21.583 0 21.583 0s13.813 6.165 13.813 30.827c0 18.295-5.426 31.36-5.426 31.36-.74 2.076-3.13 3.76-5.348 3.76h-5.775c-2.213 0-4.617-1.689-5.323-3.786 0 0-5.727-14.516-5.311-30.62z" stroke="#000" stroke-width="2" fill="#FFF"/><path fill="#000" d="M12.004 54.421h19.784v2.398H12.004z"/><ellipse fill="#FECB30" cx="21.707" cy="23.917" rx="6.295" ry="6.295"/><ellipse stroke="#000" stroke-width="2" cx="21.707" cy="23.917" rx="6.295" ry="6.295"/></g></svg>