<svg id="Слой_1" xmlns="http://www.w3.org/2000/svg" xmlns:xlink="http://www.w3.org/1999/xlink" viewBox="0 0 164 200"><style>.st6{fill:#ffcf01}.st7{fill:#fff}.st18{fill:#0d172a}.st20{fill:#187cbe}</style><path class="st20" d="M129.1 197.5l25.8-13.7c.8-.4.5-1.6-.4-1.6H85.9l1.9 14 41.3 1.3z"/><defs><path id="XMLID_3_" d="M120.9 1.2l-.7.1h-.4L48.1 5.4c-5.9.3-10.7 5.8-10.7 12.2v164.7c0 6.4 4.8 11.9 10.7 12.2l71.7 4.1c7.1.5 12.1-1.2 14.9-6.1a21 21 0 0 0 1.2-8.8V17.3c0-9.8-8.9-16.4-15-16.1z"/></defs><use xlink:href="#XMLID_3_" overflow="visible" fill="#ff3c1e"/><clipPath id="XMLID_5_"><use xlink:href="#XMLID_3_" overflow="visible"/></clipPath><path d="M138.4 33.8s-5.2-2.5-7.5-2.5h-5v-3.8h3.8c4.4 0 8.8 3.8 8.8 3.8v2.5zm0 136.2s-5.2 2.5-7.5 2.5h-5v3.8h3.8c4.4 0 8.8-3.8 8.8-3.8V170z" clip-path="url(#XMLID_5_)" fill="#ff3c1e"/><defs><path id="SVGID_5_" d="M119.7 196.2l-71.7-4c-4.7-.3-8.5-4.6-8.5-9.8V17.5c0-5.1 3.8-9.5 8.5-9.8l71.7-4a9 9 0 0 1 9.4 9.3v174a9 9 0 0 1-9.4 9.2z"/></defs><use xlink:href="#SVGID_5_" overflow="visible" fill="#187cbe"/><clipPath id="SVGID_2_"><use xlink:href="#SVGID_5_" overflow="visible"/></clipPath><path clip-path="url(#SVGID_2_)" fill="#0d172a" d="M94.4-2L32.5 149.6l-1.4 49.2 97.5 7.5 2.5-210.1z"/><path class="st20" d="M115.5 86.4V28.6L93.3 5.3l-2.6.1-22.3 34.2 47.1 46.8z"/><path class="st7" d="M124.4 27.9l-80.6 3.4v137.4l80.6 3.6V68.8z"/><path class="st18" d="M93.3 19.6l-15.7.7c-.6 0-1.1-.5-1.1-1.1 0-.7.5-1.2 1.1-1.2l15.7-.8c.6 0 1.1.5 1.1 1.1 0 .8-.5 1.3-1.1 1.3zm-20.4 1.5c-.9 0-1.7-.7-1.7-1.7a2 2 0 0 1 1.7-1.9c.9 0 1.7.7 1.7 1.7s-.8 1.9-1.7 1.9zm11.5-7.6c-.6 0-1.1-.5-1.1-1.1 0-.6.5-1.2 1.1-1.2.6 0 1.1.5 1.1 1.1 0 .7-.5 1.2-1.1 1.2z"/><defs><path id="XMLID_2_" d="M86.8 177.4a7.4 7.4 0 0 0-10.1.2c-2.5 2.7-2.2 7 .8 9.5s7.5 2.5 10-.2c2.6-2.6 2.3-6.9-.7-9.5z"/></defs><use xlink:href="#XMLID_2_" overflow="visible" fill="#187cbe"/><clipPath id="XMLID_7_"><use xlink:href="#XMLID_2_" overflow="visible"/></clipPath><path clip-path="url(#XMLID_7_)" fill="#ff281e" d="M78 175.5l11.3 12.4-5 1.8-1.9 2.1-10.7-9.3z"/><path id="XMLID_1_" class="st18" d="M86 178.2c-2.5-2.2-6.3-2.1-8.4.2-2.1 2.2-1.8 5.8.6 7.9 2.5 2.1 6.2 2.1 8.4-.1s1.9-5.8-.6-8z"/><path class="st20" d="M48.1 144L73 170l51.4 2.3V68.8l-16-17z"/><path class="st18" d="M75.4 160.5l11.2-3.3-3.4-7.1-8.6-5.2z"/><path class="st18" d="M87.4 134.1l.5 21.6c0 1.5-1.8 2.2-2.8 1.2l-27.5-27.5 29.8 4.7z"/><path class="st18" d="M106.6 140.5l-20.9 6.1V46l20.7 4.9c2.1.6 3.5 2.2 3.5 4.2v81.4a4.6 4.6 0 0 1-3.3 4z"/><path d="M84.1 146.7l-70.4-2.6a5.4 5.4 0 0 1-5.2-5.4V53.1c0-2.9 2.3-5.3 5.2-5.4l70.4-2c3-.1 5.5 2.3 5.5 5.4v90.2c0 3.1-2.5 5.5-5.5 5.4z" fill="#ffe67b"/><path class="st18" d="M132.5 55.5c-.7 0-1.3-.6-1.3-1.3v-10c0-.7.6-1.3 1.3-1.3.7 0 1.3.6 1.3 1.3v10c-.1.7-.6 1.3-1.3 1.3z"/><path d="M75.7 137.6l.5 21.6c0 1.5-1.8 2.2-2.8 1.2l-27.5-27.5 29.8 4.7z" fill="#ffad15"/><path class="st6" d="M13.8 47.8a5.4 5.4 0 0 0-5.2 5.4v12.3l11.7-17.8-6.5.1z"/><path class="st6" d="M31.1 47.3h-.3l-10.6.3L8.5 65.4v73.4c0 2.9 2.3 5.2 5.2 5.4l70.4 2.6c2.5.1 4.7-1.6 5.4-3.9l.2-1.4v-35.8c-19.5-19.6-39.1-39-58.6-58.4z"/><path d="M36.8 65.4v10.2l-15.7 5.1 12.4-8.5V53.6s-8.9 7.1-11.7 9.1c-3.3 2.5-3.5 3.5-3.5 5.1v12.4a2 2 0 0 0 2.1 2.1h19.8v-17h-3.4zm-9-.4c.7-.9 1.8-1.2 2.4-.7.6.5.5 1.6-.3 2.5-.7.9-1.8 1.2-2.4.7-.5-.5-.4-1.6.3-2.5z" fill="#0a1428"/><path fill="#7ec9f0" d="M79.8 99.6l-61.5 1.1v-8.9l61.5-1.4z"/><path class="st7" d="M79.8 112.4l-61.5.4v-6l61.5-.4z"/><path fill="#ff281e" d="M32.6 124.6H18.3v-5.9l14.3-.1z"/><path class="st7" d="M40.2 136.5H18.3v-6h21.9zm39.6-12l-41 .1v-6l41-.1z"/><path transform="rotate(-45 78.5 55.4)" class="st18" d="M77.3 50.9h2.4v8.9h-2.4z"/><path transform="rotate(45 78.5 55.4)" class="st18" d="M77.3 50.9h2.4v8.9h-2.4z"/><path class="st20" d="M40.2 91.3l-21.9.5v8.9l30.7-.5z"/><path class="st7" d="M74.5 90.6l5.3-.2v5.4z"/></svg>
