<svg xmlns="http://www.w3.org/2000/svg" xmlns:xlink="http://www.w3.org/1999/xlink" width="260" height="165" viewBox="0 0 260 165"> <defs> <linearGradient id="b" x1="6.725%" x2="76.175%" y1="0%" y2="89.441%"> <stop offset="0%" stop-color="#8199BC"/> <stop offset="100%" stop-color="#6B809E"/> </linearGradient> <rect id="a" width="260" height="164.735" rx="10"/> <path id="d" d="M.619 1h.996V.13H.62z"/> </defs> <g fill="none" fill-rule="evenodd"> <g> <mask id="c" fill="#fff"> <use xlink:href="#a"/> </mask> <use fill="url(#b)" xlink:href="#a"/> <path fill="#FFF" d="M215.743 40.893h15.616v98.493H114.2c-12.082 0-13.35-11.984-13.35-11.984V51.548c0-12.317 11.59-20.032 11.59-20.032l82.344-62.112v71.489h20.96zm-21.106.096v43.464l-72.586 48.856 89.29-28.977V40.989h-16.704zm-31.64-6.826c-6.048 2.372-10.949 8.639-10.949 13.997 0 5.36 4.9 7.781 10.949 5.405 6.048-2.372 10.952-8.639 10.952-13.998s-4.9-7.777-10.952-5.404z" mask="url(#c)" opacity=".109"/> </g> <path fill="#F69F1C" d="M250.53 135.563c0 9.028-7.274 16.35-16.245 16.35-8.972 0-16.244-7.322-16.244-16.35 0-9.029 7.272-16.349 16.244-16.349 8.971 0 16.245 7.32 16.245 16.35"/> <path fill="#E81E25" d="M230.489 135.38c0 9.027-7.273 16.348-16.245 16.348-8.972 0-16.244-7.32-16.244-16.349s7.272-16.349 16.244-16.349 16.245 7.32 16.245 16.35"/> <path fill="#F06022" d="M224.265 122.694a16.35 16.35 0 0 0-6.224 12.867c0 5.225 2.433 9.88 6.224 12.873a16.363 16.363 0 0 0 6.223-12.873c0-5.223-2.433-9.875-6.223-12.867"/> <path fill="#F69F1C" d="M249.539 144.238v-.483h.194v-.1h-.495v.1h.195v.483h.106zm.96 0v-.583h-.151l-.174.4-.175-.4h-.151v.583h.106v-.44l.164.379h.11l.164-.38v.441h.107z"/> <path fill="#FEFEFE" d="M201.614 160h-.923v-4.32h.904v.525s.794-.644 1.266-.636c.917.016 1.464.799 1.464.799s.444-.799 1.446-.799c1.482 0 1.7 1.362 1.7 1.362v3.05h-.887v-2.687s.003-.817-.958-.817c-.994 0-1.085.817-1.085.817v2.686h-.92v-2.705s-.09-.852-.922-.852c-1.083 0-1.104.871-1.104.871l.019 2.706zM229.648 155.568c-.473-.008-1.267.637-1.267.637v-.527h-.904v4.32h.922l-.018-2.703s.021-.871 1.103-.871c.202 0 .357.049.48.124v-.003l.301-.842a1.662 1.662 0 0 0-.617-.135M242.633 155.568c-.472-.008-1.266.637-1.266.637v-.527h-.904v4.32h.922l-.018-2.703s.02-.871 1.103-.871c.2 0 .357.049.48.124v-.003l.3-.842a1.682 1.682 0 0 0-.617-.135M210.627 156.431c.742 0 1.343.648 1.343 1.444 0 .798-.601 1.443-1.343 1.443-.74 0-1.34-.645-1.34-1.443 0-.796.6-1.444 1.34-1.444m-.177-.88c-1.379 0-2.11 1.246-2.113 2.285-.004 1.068.832 2.297 2.152 2.297.771 0 1.405-.57 1.405-.57l-.001.44h.906v-4.326h-.91v.545s-.595-.671-1.439-.671M237.089 156.431c.741 0 1.343.648 1.343 1.444 0 .798-.602 1.443-1.343 1.443s-1.34-.645-1.34-1.443c0-.796.599-1.444 1.34-1.444m-.177-.88c-1.38 0-2.11 1.246-2.114 2.285-.003 1.068.832 2.297 2.152 2.297.773 0 1.405-.57 1.405-.57v.44h.906v-4.326h-.91v.545s-.596-.671-1.44-.671M245.8 156.431c.742 0 1.345.648 1.345 1.444 0 .798-.603 1.443-1.344 1.443-.741 0-1.34-.645-1.34-1.443 0-.796.599-1.444 1.34-1.444m-.177-.88c-1.38 0-2.11 1.246-2.113 2.285-.004 1.068.831 2.297 2.152 2.297.771 0 1.404-.57 1.404-.57v.44h.906v-6.034h-.91v2.253s-.596-.671-1.439-.671M215.568 160.145c-.94 0-1.807-.581-1.807-.581l.396-.618s.821.382 1.411.382c.383 0 1.021-.124 1.03-.509.008-.405-1.076-.526-1.076-.526s-1.618-.022-1.618-1.362c0-.843.81-1.38 1.844-1.38.598 0 1.717.527 1.717.527l-.451.708s-.864-.347-1.32-.364c-.385-.013-.85.171-.85.509 0 .916 2.694-.071 2.694 1.779 0 1.214-1.097 1.435-1.97 1.435M219.035 154.426v1.257h-.802v.909h.802v2.171s-.071 1.47 1.502 1.47c.435 0 1.286-.323 1.286-.323l-.363-.945s-.339.29-.722.28c-.727-.016-.707-.485-.707-.485v-2.168h1.498v-.91h-1.498v-1.256h-.996zM224.36 156.453c.036-.002.072 0 .11 0 1.107 0 1.1 1.05 1.1 1.05h-2.238s-.053-.988 1.029-1.05m.134-.849c-1.48 0-2.219 1.224-2.213 2.287.006 1.092.674 2.32 2.302 2.32.696 0 1.674-.613 1.674-.613l-.42-.735s-.668.476-1.254.476c-1.176 0-1.252-1.155-1.252-1.155h3.145s.235-2.58-1.982-2.58M233.85 158.852l.422.848s-.668.435-1.418.435c-1.555 0-2.416-1.174-2.416-2.285 0-1.746 1.372-2.26 2.301-2.26.84 0 1.571.489 1.571.489l-.473.847s-.286-.449-1.125-.449c-.836 0-1.277.725-1.277 1.412 0 .771.514 1.425 1.29 1.425.61 0 1.125-.462 1.125-.462"/> <g transform="translate(248.812 159.276)"> <mask id="e" fill="#fff"> <use xlink:href="#d"/> </mask> <path fill="#FEFEFE" d="M1.088.438c.023 0 .04.004.055.013a.047.047 0 0 1 .019.04.05.05 0 0 1-.02.04.099.099 0 0 1-.054.014h-.1V.438h.1zM1.09.362H.903v.404h.085V.615h.04l.122.151h.103L1.122.614a.169.169 0 0 0 .095-.04.114.114 0 0 0 .033-.083.117.117 0 0 0-.041-.094.19.19 0 0 0-.12-.035zm-.025.543a.343.343 0 0 1-.242-.1.34.34 0 0 1 0-.48.337.337 0 0 1 .242-.097.326.326 0 0 1 .236.098.342.342 0 0 1 0 .48.332.332 0 0 1-.236.1zm0-.775a.447.447 0 0 0-.317.128.433.433 0 0 0 0 .615.442.442 0 0 0 .317.127.435.435 0 1 0 0-.87z" mask="url(#e)"/> </g> </g></svg>